<svg width="360" height="700" x="0" y="0"
	xmlns="http://www.w3.org/2000/svg" viewBox="0 0 360 700">
	<defs>
		<!-- define grass pattern -->
		<pattern id="grassPattern" patternUnits="userSpaceOnUse" x="0" y="0" height="50" width="30">
			<line x1="0" y1="0" x2="15" y2="50" style="stroke:darkolivegreen;stroke-width:1" />
			<line x1="15" y1="10" x2="15" y2="50" style="stroke:darkolivegreen;stroke-width:1" />
			<line x1="30" y1="5" x2="15" y2="50" style="stroke:darkslategray;stroke-width:1" />
			<line x1="20" y1="0" x2="31" y2="37" style="stroke:green;stroke-width:1" />
			<line x1="15" y1="0" x2="27.5" y2="45" style="stroke:darkolivegreen;stroke-width:1" />
			<line x1="25" y1="0" x2="35" y2="30" style="stroke:darkslategrey;stroke-width:1" />
		</pattern>
		<!-- tree pattern -->
		<pattern id="treePattern" patternUnits="userSpaceOnUse" x="5" y="0" height="50" width="50">
			<rect width="10" height="10" x="20" y="40" fill="maroon" />
			<polygon points="25,0 40,15 30,15 45,25 35,25 50,40 0,40 15,25 5,25 20,15 10,15 " style="fill:darkgreen;" />
		</pattern>
		<!-- water pattern -->
		<pattern id="waterPattern" patternUnits="userSpaceOnUse" x="-5" y="0" height="10" width="20">
			<circle cx="10" cy="-10" r="15" fill="transparent" stroke="aqua" stroke-width="1" />
		</pattern>
		<!-- red fish pattern -->
		<pattern id="redFish" patternUnits="userSpaceOnUse" x="5" y="35" width="71" height="70">
			<rect width="50" height="30" x="2" y="22" rx="30" fill="firebrick" stroke="maroon" stroke-width="2" />
			<rect width="25" height="28" x="6" y="23" rx="30" fill="orangered" />
			<polygon points="52,37 70,22 65,60" style="fill:red;stroke:maroon;stroke-width:2;" />
			<polygon points="25,22 45,11 55,22" style="fill:red;stroke:maroon;stroke-width:2;" />
			<polygon points="25,53 45,65 55,54" style="fill:red;stroke:maroon;stroke-width:2;" />
			<rect width="10" height="10" x="10" y="30" rx="5" stroke="chartreuse" stroke-width="3" />
			<polygon points="6,45 20,45 6,45" style="stroke:black;stroke-width:2;" />
		</pattern>
	</defs>
	<!-- build block4 pond -->
	<rect width="360" height="345" x="0" y="15" rx="30" fill="#83b226" />
	<rect width="360" height="345" x="0" y="15" rx="30" fill="url(#grassPattern)" opacity=".5" />
	<rect width="80" height="80" x="143" y="15" fill="#23c8ff" />
	<rect width="80" height="80" x="143" y="15" fill="url(#waterPattern)" />
	<rect width="310" height="263" x="25" y="55" rx="200" fill="#23c8ff" />
	<rect width="71" height="70" x="148" y="245" fill="url(#redFish)"/>
	<rect width="310" height="263" x="25" y="55" rx="200" fill="url(#waterPattern)" />
	<rect width="100" height="50" x="5" y="0" fill="url(#treePattern)" />
	<rect width="100" height="50" x="255" y="0" fill="url(#treePattern)" />
	<rect width="50" height="50" x="5" y="50" fill="url(#treePattern)" />
	<rect width="50" height="50" x="305" y="50" fill="url(#treePattern)" />
	<rect width="100" height="50" x="5" y="300" fill="url(#treePattern)" />
	<rect width="100" height="50" x="255" y="300" fill="url(#treePattern)" />
	<rect width="50" height="50" x="305" y="250" fill="url(#treePattern)" />
	<rect width="50" height="50" x="5" y="250" fill="url(#treePattern)" />
	<text x="137" y="378" fill="darkgreen" font-family="sans-serif" font-size="18">
		click here
	</text>
</svg>
