<!-- block2-->
<svg width="360" height="558" class="block2"
    xmlns="http://www.w3.org/2000/svg"
    xmlns:xlink="http://www.w3.org/1999/xlink" viewBox="60 0 320 560">
    <defs>
        <!-- grey bricks -->
        <pattern id="greyBricks" patternUnits="userSpaceOnUse" x="0" y="0" width="50" height="15">
            <rect width="50" height="15" x="0" y="0" fill="lightgrey"/>
            <rect width="23.5" height="6.5" x="0" y="0" rx="1" fill="grey" />
            <rect width="23.5" height="6.5" x="25" y="0" rx="1" fill="#717171" />
            <rect width="12" height="6.5" x="0" y="7.5" fill="dimgrey"/>
            <rect width="23.5" height="6.5" x="13" y="7.5" rx="1" fill="#808080" />
            <rect width="12" height="6.5" x="38" y="7.5" fill="dimgrey"/>
        </pattern>
        <!--water pattern-->
        <pattern id="waterPattern" patternUnits="userSpaceOnUse" x="0" y="0" height="10" width="20">
            <circle cx="10" cy="-10" r="15" fill="transparent" stroke="aqua" stroke-width="1" />
        </pattern>
        <!--red bricks-->
        <pattern id="redBricks" patternUnits="userSpaceOnUse" x="0" y="0" width="50" height="15">
            <rect width="50" height="15" x="0" y="0" fill="#dcc0c7"/>

            <rect width="23.5" height="6.5" x="0" y="0" rx="1" fill="#9d2c4e"/>

            <rect width="23.5" height="6.5" x="25" y="0" rx="1" fill="#9c2343"/>

            <rect width="12" height="6.5" x="0" y="7.5" fill="#a11d3e"/>
            <rect width="23.5" height="6.5" x="13" y="7.5" rx="1" fill="#aa3553"/>

            <rect width="12" height="6.5" x="38" y="7.5" fill="#a11d3e"/>
        </pattern>
        <!-- define tree pattern -->
        <pattern id="treePattern" patternUnits="userSpaceOnUse" x="0" y="0" height="50" width="50">
            <rect width="10" height="10" x="20" y="40" fill="maroon" />
            <polygon points="25,0 40,15 30,15 45,25 35,25 50,40 0,40 15,25 5,25 20,15 10,15 " style="fill:darkgreen;"/>
        </pattern>
    </defs>
    <!--build block2-->
    <rect width="310" height="318" x="40" y="0" fill="url(#redBricks)" />
    <rect width="224" height="318" x="40" y="294" fill="url(#redBricks)" />
    <rect width="98" height="171" x="264" y="331" fill="url(#redBricks)" />
    <rect width="262" height="272" x="64" y="24" fill="#f8d4f4" />
    <rect width="176" height="242" x="64" y="294" fill="#f8d4f4" />
    <rect width="99" height="125" x="239" y="354" fill="#f8d4f4" />
    <rect width="50" height="500" x="350" y="0" fill="url(#treePattern)" />
    <rect width="150" height="50" x="250" y="500" fill="url(#treePattern)" />
    <!--basin-->
    <rect width="80" height="80" x="246" y="215" rx="40" fill="url(#greyBricks)" stroke="black" />
    <rect width="65" height="65" x="253" y="222" rx="40" fill="#23c8ff" stroke="black" />
    <rect width="65" height="65" x="253" y="222" rx="40" fill="url(#waterPattern)" stroke="black" />
    <!--fireplace-->
    <rect width="90" height="110" x="241" y="360" rx="40" fill="url(#greyBricks)" stroke="black" stroke-width="2" />
    <rect width="61" height="95" x="255" y="375" rx="30" />
    <rect width="90" height="40" x="241" y="432" rx="5" fill="url(#greyBricks)" stroke="black" stroke-width="2" />
	<rect width="50" height="52" x="261" y="380" fill="orange" rx="50" />
	<rect width="35" height="40" x="268" y="390" fill="red" rx="50" />
	<rect width="10" height="20" x="280" y="407" fill="#23c8ff" rx="15" />
	<rect width="20" height="25" x="271" y="380" rx="15" />
</svg>