<svg height="898" width="270" xmlns="http://www.w3.org/2000/svg" xmlns:xlink="http://www.w3.org/1999/xlink"><pattern id="a" height="15" patternUnits="userSpaceOnUse" width="50"><path d="m0 0h50v15h-50z" fill="#dcc0c7"/><rect fill="#9d2c4e" height="6.5" rx="1" width="23.5"/><rect fill="#9c2343" height="6.5" rx="1" width="23.5" x="25"/><path d="m0 7.5h12v6.5h-12z" fill="#a11d3e"/><rect fill="#aa3553" height="6.5" rx="1" width="23.5" x="13" y="7.5"/><path d="m38 7.5h12v6.5h-12z" fill="#a11d3e"/></pattern><pattern id="b" height="15" patternUnits="userSpaceOnUse" width="50"><path d="m0 0h50v15h-50z" fill="#d3d3d3"/><rect fill="#808080" height="6.5" rx="1" width="23.5"/><rect fill="#717171" height="6.5" rx="1" width="23.5" x="25"/><path d="m0 7.5h12v6.5h-12z" fill="#696969"/><rect fill="#808080" height="6.5" rx="1" width="23.5" x="13" y="7.5"/><path d="m38 7.5h12v6.5h-12z" fill="#696969"/></pattern><pattern id="c" height="160" patternUnits="userSpaceOnUse" width="150" x="8" y="80"><rect height="37" opacity=".3" rx="3" width="93" x="3" y="80"/><rect fill="#bebebe" height="105" rx="43" stroke="#000" width="93" x="3" y="4"/><rect fill="url(#b)" height="83" rx="31" stroke="#000" width="56" x="22" y="23"/><rect height="83" opacity=".6" rx="31" width="56" x="22" y="23"/><rect fill="#bebebe" height="37" rx="3" stroke="#000" width="93" x="3" y="72"/><rect fill="#a9a9a9" height="25" rx="3" stroke="#000" width="12" x="43" y=".7"/><rect fill="#a9a9a9" height="12" rx="3" stroke="#000" width="25" x=".7" y="43"/><rect fill="#a9a9a9" height="12" rx="3" stroke="#000" width="25" x="74" y="43"/><rect fill="#808080" height="12" rx="3" stroke="#000" width="12" x="74" y="74"/><rect fill="#a9a9a9" height="12" rx="3" stroke="#000" width="12" x="62" y="86"/><rect fill="#808080" height="12" rx="3" stroke="#000" width="12" x="12" y="93"/><rect height="42" rx="5" width="2.5" x="29" y="31"/><rect height="48" rx="5" width="2.5" x="39" y="25"/><rect height="48" rx="5" width="2.5" x="48" y="25"/><rect height="48" rx="5" width="2.5" x="57" y="25"/><rect height="42" rx="5" width="2.5" x="66" y="31"/></pattern><pattern id="d" height="160" patternUnits="userSpaceOnUse" width="150" x="8" y="80"><rect height="37" opacity=".3" rx="3" width="93" x="3" y="80"/><rect fill="#bebebe" height="105" rx="43" stroke="#000" width="93" x="3" y="4"/><rect fill="url(#a)" height="83" rx="31" stroke="#000" width="56" x="22" y="23"/><rect height="83" opacity=".3" rx="31" width="56" x="22" y="23"/><rect fill="#ffd700" height="83" opacity=".1" rx="31" width="56" x="22" y="23"/><rect fill="#fff" height="22" rx="1" width="13" x="43" y="52"/><rect fill="#ffd700" height="25" opacity=".8" rx="15" width="25" x="36" y="26"/><rect fill="#dc143c" height="15" opacity=".9" rx="15" width="9" x="44" y="34"/><rect fill="#bebebe" height="37" rx="3" stroke="#000" width="93" x="3" y="72"/><rect fill="#a9a9a9" height="25" rx="3" stroke="#000" width="12" x="43" y=".7"/><rect fill="#a9a9a9" height="12" rx="3" stroke="#000" width="25" x=".7" y="43"/><rect fill="#a9a9a9" height="12" rx="3" stroke="#000" width="25" x="74" y="43"/><rect fill="#808080" height="12" rx="3" stroke="#000" width="12" x="74" y="74"/><rect fill="#a9a9a9" height="12" rx="3" stroke="#000" width="12" x="62" y="86"/><rect fill="#808080" height="12" rx="3" stroke="#000" width="12" x="12" y="93"/><rect height="42" rx="5" width="2.5" x="29" y="31"/><rect height="48" rx="5" width="2.5" x="39" y="25"/><rect height="48" rx="5" width="2.5" x="48" y="25"/><rect height="48" rx="5" width="2.5" x="57" y="25"/><rect height="42" rx="5" width="2.5" x="66" y="31"/></pattern><path d="m0 0h268v33h-268z" fill="url(#b)" opacity=".5"/><path d="m0 28h268v624h-268z" fill="url(#b)"/><path d="m91 650.5h177v248h-177z" fill="url(#b)"/><path d="m0 40h134v175h-134z" fill="url(#c)"/><path d="m134 208h134v180h-134z" fill="url(#d)"/><path d="m0 380h134v180h-134z" fill="url(#c)"/><path d="m125 528h134v150h-134z" fill="url(#c)"/><g stroke="#000"><rect fill="#bebebe" height="240" rx="80" width="150" x="105" y="730"/><rect fill="#cd853f" height="180" rx="50" width="90" x="135" y="762"/><rect fill="#a9a9a9" height="40" rx="5" width="20" x="170" y="722"/><rect fill="#a9a9a9" height="20" rx="5" width="40" x="95" y="805"/><rect fill="#a9a9a9" height="20" rx="5" width="40" x="95" y="850"/><rect fill="#a9a9a9" height="20" rx="5" width="40" x="225" y="805"/><rect fill="#a9a9a9" height="20" rx="5" width="40" x="225" y="850"/></g><path d="m150 775v115" stroke="#8b4513" stroke-width="3"/><path d="m170 805v85" stroke="#8b4513" stroke-width="5"/><path d="m210 785v105" stroke="#8b4513" stroke-width="3"/><path d="m190 763v117" stroke="#8b4513" stroke-width="3"/><rect height="10" rx="5" width="20" x="140" y="832"/></svg>