<!--cover6-->
<svg width="265" height="600"
    xmlns="http://www.w3.org/2000/svg" class="cover6">
    <defs>
        <!--window pattern-->
        <pattern id="windowPattern" patternUnits="userSpaceOnUse" x="22" y="108" width="150" height="160">
            <!--stone work-->
            <rect width="93" height="105" x="3" y="4" fill="#bebebe" rx="43" stroke="black" />
            <rect width="56" height="83" x="22" y="23" rx="31" stroke="black" fill="url(#redBricks)" />
            <rect width="56" height="83" x="22" y="23" rx="31" opacity=".4" />
            <!--candle-->
            <rect width="13" height="22" x="43" y="52" rx="1" fill="white" />
            <rect width="25" height="25" x="36" y="26" rx="15" fill="gold" opacity=".8" />
            <rect width="9" height="15" x="44" y="34" rx="15" fill="crimson" opacity=".9" />
            <!--more stone work-->
            <rect width="93" height="37" x="3" y="72" fill="#bebebe" rx="3" stroke="black" />
            <rect width="12" height="25" x="43" y=".7" fill="darkgrey" rx="3" stroke="black" />
            <rect width="25" height="12" x=".7" y="43" fill="darkgrey" rx="3" stroke="black" />
            <rect width="25" height="12" x="74" y="43" fill="darkgrey" rx="3" stroke="black" />
            <rect width="12" height="12" x="74" y="74" fill="grey" rx="3" stroke="black" />
            <rect width="12" height="12" x="62" y="86" fill="darkgrey" rx="3" stroke="black" />
            <rect width="12" height="12" x="12" y="93" fill="grey" rx="3" stroke="black" />
            <!--bars-->
            <rect width="2.5" height="42" x="29" y="31" rx="5" />
            <rect width="2.5" height="48" x="39" y="25" rx="5" />
            <rect width="2.5" height="48" x="48" y="25" rx="5" />
            <rect width="2.5" height="48" x="57" y="25" rx="5" />
            <rect width="2.5" height="42" x="66" y="31" rx="5" />
        </pattern>
        <!--define floor pattern-->
        <pattern id="floorPattern" patternUnits="userSpaceOnUse" x="0" y="0" height="24.1" width="24.2">
            <rect width="25" height="25" x="0" y="0" fill="lightgrey" />
            <rect width="24.1" height="24.2" x="0" y="0" rx="5" fill="rgb(190, 190, 190)" stroke="lightgrey" stroke-width="3" />
        </pattern>
    </defs>
    <rect width="265" height="25" x="0" y="0" fill="url(#floorPattern)" />
    <rect width="265" height="45" x="0" y="25" opacity="0" />
    <rect width="265" height="253" x="0" y="70" fill="url(#floorPattern)" />
    <rect width="265" height="45" x="0" y="320" opacity="0" />
    <rect width="265" height="58" x="0" y="367" fill="url(#floorPattern)" />
    <rect width="265" height="45" x="0" y="425" opacity="0" />
    <rect width="265" height="130" x="0" y="470" fill="url(#floorPattern)" />
     <rect width="150" height="160" x="0" y="70" fill="url(#windowPattern)" />
</svg>