<svg width="360" height="250"
	xmlns="http://www.w3.org/2000/svg" viewBox="0 0 560 275">
	<polygon points="145,1 60,200 300,200 235,1 " style="stroke:saddlebrown;stroke-width:3;fill:burlywood;" />
	<polygon points="160,1 100,200 160,1 175,1 140,200 175,1 190,1 180,200 190,1 205,1 220,200 205,1 220,1 260,200 220,1" 
	style="stroke:saddlebrown;fill:transparent;"/>
	<rect width="244" height="15" x="59" y="205" rx="3" opacity=".2"/>
		<rect width="41" height="15" x="260" y="200" rx="3" fill="peru" stroke="saddlebrown" stroke-width="3" />
	
	<rect width="41" height="15" x="59" y="200" rx="3" fill="peru" stroke="saddlebrown" stroke-width="3" />
	<rect width="41" height="15" x="99" y="200" rx="3" fill="peru" stroke="saddlebrown" stroke-width="3" />
	<rect width="41" height="15" x="139" y="200" rx="3" fill="peru" stroke="saddlebrown" stroke-width="3" />
	<rect width="41" height="15" x="179" y="200" rx="3" fill="peru" stroke="saddlebrown" stroke-width="3" />
	<rect width="41" height="15" x="220" y="200" rx="3" fill="peru" stroke="saddlebrown" stroke-width="3" />

</svg>
