<svg width="500" height="500" viewBox="0 0 500 360"
    xmlns="http://www.w3.org/2000/svg">
    <defs>
    <!--plank pattern-->
        <pattern id="planks" patternUnits="userSpaceOnUse" x="0" y="0" width="100" height="500">
            <rect width="80" height="500" fill="burlywood" stroke="saddlebrown" stroke-width="2" />
            <polygon points="0,0 0,500 20,500 20,0 40,0 40,500 60,500 60,0 80,0 80,500 100,500 100,0" style="stroke:saddlebrown;stroke-width:2;fill:burlywood;" />
        </pattern>
        <!-- define tree pattern -->
        <pattern id="treePattern" patternUnits="userSpaceOnUse" x="5" y="0" height="50" width="50">
            <rect width="10" height="10" x="20" y="40" fill="maroon" />
            <polygon points="25,0 40,15 30,15 45,25 35,25 50,40 0,40 15,25 5,25 20,15 10,15 " style="fill:darkgreen;"/>
        </pattern>
        <!-- water pattern -->
        <pattern id="waterPattern" patternUnits="userSpaceOnUse" x="0" y="0" height="10" width="20">
            <circle cx="10" cy="-10" r="15" fill="transparent" stroke="aqua" stroke-width="1" />
        </pattern>
    </defs>
    <rect width="300" height="80" fill="url(#planks)" stroke="saddlebrown" 
    stroke-width="2" x="40" y="0" />
</svg>