<!--block6 container-->
		<svg width="405" height="700" x="40" y="0" xmlns="http://www.w3.org/2000/svg" class="block6">
        <defs>
         <!--grey bricks-->
        <pattern id="my3pattern" patternUnits="userSpaceOnUse" x="0" y="0" width="50" height="15">
            <rect width="50" height="15" x="0" y="0" fill="lightgrey"/>
            <rect width="23.5" height="6.5" x="0" y="0" rx="1" fill="grey" />
            <rect width="23.5" height="6.5" x="25" y="0" rx="1" fill="#717171" />
            <rect width="12" height="6.5" x="0" y="7.5" fill="dimgrey"/>
            <rect width="23.5" height="6.5" x="13" y="7.5" rx="1" fill="#808080" />
            <rect width="12" height="6.5" x="38" y="7.5" fill="dimgrey"/>
        </pattern>
        <!--red bricks-->
        <pattern id="my4pattern" patternUnits="userSpaceOnUse" x="0" y="0" width="50" height="15">
            <rect width="50" height="15" x="0" y="0" fill="#dcc0c7"/>

            <rect width="23.5" height="6.5" x="0" y="0" rx="1" fill="#9d2c4e"/>

            <rect width="23.5" height="6.5" x="25" y="0" rx="1" fill="#9c2343"/>

            <rect width="12" height="6.5" x="0" y="7.5" fill="#a11d3e"/>
            <rect width="23.5" height="6.5" x="13" y="7.5" rx="1" fill="#aa3553"/>

            <rect width="12" height="6.5" x="38" y="7.5" fill="#a11d3e"/>
        </pattern>
        <!-- define tree pattern -->
        <pattern id="treePattern" patternUnits="userSpaceOnUse" x="0" y="0" height="50" width="50">
            <rect width="10" height="10" x="20" y="40" fill="maroon" />
            <polygon points="25,0 40,15 30,15 45,25 35,25 50,40 0,40 15,25 5,25 20,15 10,15 " style="fill:darkgreen;"/>
        </pattern>
        </defs>
			<!--build block6-->
			<rect width="315" height="650" x="45" y="50" rx="30" fill="url(#my3pattern)" />
			<rect width="265" height="600" x="70" y="75" rx="15" fill="url(#my4pattern)" />
			<rect width="265" height="600" x="70" y="75" rx="15" fill="black" opacity=".5" />
			<rect width="50" height="650" x="350" y="50" fill="url(#treePattern)" />
			<rect width="150" height="50" x="50" y="0" fill="url(#treePattern)" />
			<rect width="100" height="50" x="250" y="0" fill="url(#treePattern)" />
		</svg>