<!--block3-->
<svg width="360" height="600" x="0" y="0"
	xmlns="http://www.w3.org/2000/svg" class="block3">
	<defs>
		<!--water pattern-->
		<pattern id="waterPattern" patternUnits="userSpaceOnUse" x="0" y="0" height="10" width="20">
			<circle cx="10" cy="-10" r="15" fill="transparent" stroke="aqua" stroke-width="1" />
		</pattern>
		<!-- define tree pattern -->
		<pattern id="treePattern" patternUnits="userSpaceOnUse" x="0" y="0" height="50" width="50">
			<rect width="10" height="10" x="20" y="40" fill="maroon" />
			<polygon points="25,0 40,15 30,15 45,25 35,25 50,40 0,40 15,25 5,25 20,15 10,15 " style="fill:darkgreen;"/>
		</pattern>
	</defs>
	<!--build block3-->
	<rect width="150" height="50" fill="url(#treePattern)" x="0" y="0" />
	<rect width="150" height="50" fill="url(#treePattern)" x="200" y="0" />
	<rect width="360" height="550" fill="url(#my3pattern)" x="0" y="50" rx="40" />
	<rect width="330" height="520" fill="#23c8ff" x="15" y="65" rx="30" />
	<rect width="330" height="520" fill="url(#waterPattern)" x="15" y="65" rx="30" />
	<rect width="280" height="470" fill="peru" x="40" y="90" rx="20" />
</svg>