<!--block5-->
<svg width="365" height="950" x="0" y="0"
    xmlns="http://www.w3.org/2000/svg" class="block5">
    <defs>
        <!--define floor pattern-->
        <pattern id="floorPattern" patternUnits="userSpaceOnUse" x="0" y="0" height="24.1" width="24.2">
            <rect width="25" height="25" x="0" y="0" fill="lightgrey" />
            <rect width="24.1" height="24.2" x="0" y="0" rx="5" fill="rgb(190, 190, 190)" stroke="lightgrey" stroke-width="3" />
        </pattern>
        <!--tree pattern-->
        <pattern id="treePattern" patternUnits="userSpaceOnUse" x="0" y="0" height="50" width="50">
            <rect width="10" height="10" x="20" y="40" fill="maroon" />
            <polygon points="25,0 40,15 30,15 45,25 35,25 50,40 0,40 15,25 5,25 20,15 10,15 " style="fill:darkgreen;"/>
        </pattern>
        <!--water pattern-->
        <pattern id="waterPattern" patternUnits="userSpaceOnUse" x="0" y="0" height="10" width="20">
            <circle cx="10" cy="-10" r="15" fill="transparent" stroke="aqua" stroke-width="1" />
        </pattern>
        <!--red bricks-->
        <pattern id="my4pattern" patternUnits="userSpaceOnUse" x="0" y="0" width="50" height="15">
            <rect width="50" height="15" x="0" y="0" fill="#dcc0c7"/>

            <rect width="23.5" height="6.5" x="0" y="0" rx="1" fill="#9d2c4e"/>

            <rect width="23.5" height="6.5" x="25" y="0" rx="1" fill="#9c2343"/>

            <rect width="12" height="6.5" x="0" y="7.5" fill="#a11d3e"/>
            <rect width="23.5" height="6.5" x="13" y="7.5" rx="1" fill="#aa3553"/>

            <rect width="12" height="6.5" x="38" y="7.5" fill="#a11d3e"/>
        </pattern>
        <!--grey bricks-->
        <pattern id="my3pattern" patternUnits="userSpaceOnUse" x="0" y="0" width="50" height="15">
            <rect width="50" height="15" x="0" y="0" fill="lightgrey"/>
            <rect width="23.5" height="6.5" x="0" y="0" rx="1" fill="grey" />
            <rect width="23.5" height="6.5" x="25" y="0" rx="1" fill="#717171" />
            <rect width="12" height="6.5" x="0" y="7.5" fill="dimgrey"/>
            <rect width="23.5" height="6.5" x="13" y="7.5" rx="1" fill="#808080" />
            <rect width="12" height="6.5" x="38" y="7.5" fill="dimgrey"/>
        </pattern>
    </defs>
    <rect width="50" height="750" x="0" y="0" fill="url(#treePattern)" />
    <rect width="315" height="700" x="50" y="0" fill="url(#my4pattern)" />
    <rect width="225" height="249" x="140" y="700" fill="url(#my4pattern)" />
    <rect width="100" height="50" x="50" y="700" fill="url(#treePattern)" />
    <rect width="50" height="200" x="100" y="750" fill="url(#treePattern)" />
    <!--floor-->
    <rect width="267" height="651.5" x="73" y="24" fill="url(#floorPattern)" />
    <rect width="176" height="247" x="164" y="675" fill="url(#floorPattern)" />
    <!--swimming pool-->
    <rect width="184" height="305" x="114" y="66" stroke="lightgrey" stroke-width="35" fill="#23c8ff" opacity="1" />
    <rect width="184" height="305" x="114" y="66" stroke="lightgrey" stroke-width="35" fill="url(#waterPattern)" opacity="1" />
    <!--fireplace-->
    <rect width="90" height="110" x="73" y="565" rx="40" fill="url(#my3pattern)" stroke="black" stroke-width="0" />
    <rect width="61" height="95" x="87" y="580" rx="30" />
    <rect width="90" height="40" x="73" y="637" fill="url(#my3pattern)" stroke="black" stroke-width="0" />
    <rect width="81" height="100" x="77" y="570" rx="40" fill="yellow" opacity=".3" />
    <rect width="40" height="60" x="97" y="593" fill="red" rx="50" stroke="orange" stroke-width="7" />
    <rect width="10" height="30" x="112" y="618" fill="#23c8ff" rx="15" />
</svg>