<svg width="364" height="463" x="0" y="0"
	xmlns="http://www.w3.org/2000/svg" id="cover1">
	<!-- define patterns -->
	<defs>		<!--red bricks-->
		<pattern id="my4pattern" patternUnits="userSpaceOnUse" x="0" y="0" width="50" height="15">
			<rect width="50" height="15" x="0" y="0" fill="#dcc0c7"/>
			<rect width="23.5" height="6.5" x="0" y="0" rx="1" fill="#9d2c4e"/>
			<rect width="23.5" height="6.5" x="25" y="0" rx="1" fill="#9c2343"/>
			<rect width="12" height="6.5" x="0" y="7.5" fill="#a11d3e"/>
			<rect width="23.5" height="6.5" x="13" y="7.5" rx="1" fill="#aa3553"/>
			<rect width="12" height="6.5" x="38" y="7.5" fill="#a11d3e"/>
		</pattern>
	</defs>
	<rect width="262" height="80" x="0" y="0" fill="url(#my4pattern)" opacity=".5"/>
	<rect width="262" height="200" x="0" y="75" fill="url(#my4pattern)" />
	<rect width="180" height="188" x="44" y="275" fill="url(#my4pattern)" />
	<!-- door -->
	<rect width="130" height="220" x="70" y="315" fill="#bebebe" rx="80" stroke="black"/>
	<rect width="80" height="170" x="95" y="340" fill="peru" rx="50" stroke="black"/>
	<rect width="20" height="35" x="125" y="310" fill="darkgrey" rx="5" stroke="black"/>
	<rect width="35" height="20" x="65" y="375" fill="darkgrey" rx="5" stroke="black"/>
	<rect width="35" height="20" x="65" y="420" fill="darkgrey" rx="5" stroke="black"/>
	<rect width="35" height="20" x="170" y="375" fill="darkgrey" rx="5" stroke="black"/>
	<rect width="35" height="20" x="170" y="420" fill="darkgrey" rx="5" stroke="black"/>
	<line x1="110" y1="351" x2="110" y2="466" style="stroke:saddlebrown;stroke-width:3"/>
	<line x1="130" y1="370" x2="130" y2="466" style="stroke:saddlebrown;stroke-width:5"/>
	<line x1="150" y1="344" x2="150" y2="445" style="stroke:saddlebrown;stroke-width:3"/>
	<rect width="20" height="10" x="100" y="405" rx="5"/>
</svg>
