<!--define cover3-->
<svg width="282" height="513" x="0" y="0"  xmlns="http://www.w3.org/2000/svg" viewBox="0 0 282 513">
  <defs>
    <!--carrot pattern-->
    <pattern id="carrots" patternUnits="userSpaceOnUse" x="5" y="0" height="100" width="50">
      <rect width="20" height="15" x="0" y="21" rx="10" fill="orange" />
      <polygon points="0,30 20,30 12.5,75" style="fill:orange;" />
      <polygon points="8,25 0,0 4,0 9,25 7,0 12,0 11,25 15,0 20,0 12,25 8,25 " style="fill:darkgreen;" />
    </pattern>
  </defs>
  <!--build cover3-->
  <rect width="282" height="80" x="0" y="40" fill="olivedrab" opacity=".5" rx="20" />
  <rect width="282" height="433" x="0" y="80" fill="olivedrab"  rx="20" />
  <rect width="282" height="433" x="0" y="80" rx="20" fill="url(#carrots)" />
  <rect width="282" height="33" x="0" y="480" rx="20" fill="olivedrab"/>
</svg>