<svg width="1200" height="1570" x="0" y="0" viewBox="0 0 1200 1570"
    xmlns="http://www.w3.org/2000/svg" class="block6">
    <defs>
        <!-- water pattern -->
        <pattern id="waterPattern" patternUnits="userSpaceOnUse" x="0" y="0" height="10" width="20">
            <circle cx="10" cy="-10" r="15" fill="transparent" stroke="aqua" stroke-width="1" />
        </pattern>
        <!-- small green fish pattern -->
        <pattern id="smallGreenFish" patternUnits="userSpaceOnUse" x="-100" y="-10" width="90" height="70">
            <rect width="50" height="30" x="2" y="22" rx="30" fill="green" stroke="darkgreen" stroke-width="2" />
            <polygon points="52,37 70,22 65,60" style="fill:chartreuse;stroke:darkgreen;stroke-width:2;" />
            <polygon points="25,22 45,11 55,22" style="fill:chartreuse;stroke:darkgreen;stroke-width:2;" />
            <polygon points="25,53 45,65 55,54" style="fill:chartreuse;stroke:darkgreen;stroke-width:2;" />
            <rect width="10" height="10" rx="5" stroke="red" stroke-width="3" x="12" y="30" />
            <polygon points="6,45 28,45 6,45" style="stroke:black;stroke-width:2;" />
        </pattern>
        <!-- green fish pattern -->
        <pattern id="greenFish" patternUnits="userSpaceOnUse" x="70" y="-5" width="120" height="66">
            <rect width="90" height="35" x="25" y="22" rx="50" fill="#152f13" stroke="darkgreen" stroke-width="2" />
            <rect width="25" height="30" x="78" y="24" rx="50" fill="teal" />
            <polygon points="26,38 2,22 2,60" style="fill:indigo;stroke:darkgreen;stroke-width:2;" />
            <polygon points="25,22 45,11 75,22" style="fill:purple;stroke:darkgreen;stroke-width:2;" />
            <polygon points="25,55 45,65 65,57" style="fill:fuchsia;stroke:darkgreen;stroke-width:2;" />
            <rect width="11" height="11" x="88" y="39" rx="10" stroke="magenta" stroke-width="4" />
            <polygon points="108,32 88,32 108,32" style="stroke:black;stroke-width:2;" />
        </pattern>
        <!-- tropical fish pattern -->
        <pattern id="tropicalFish" patternUnits="userSpaceOnUse" x="-20" y="0" width="91" height="70">
            <rect width="50" height="30" x="2" y="22" rx="30" fill="deeppink" stroke="darkgreen" stroke-width="2" />
            <rect width="20" height="26" x="7" y="24" rx="30" fill="gold"/>
            <polygon points="52,37 70,22 65,60" style="fill:chartreuse;stroke:darkgreen;stroke-width:2;" />
            <polygon points="25,22 45,11 55,22" style="fill:gold;stroke:darkgreen;stroke-width:2;" />
            <polygon points="25,53 45,65 55,54" style="fill:gold;stroke:darkgreen;stroke-width:2;" />
            <rect width="10" height="10" rx="5" stroke="chartreuse" stroke-width="3" x="12" y="30" />
            <polygon points="6,45 20,45 6,45" style="stroke:darkgreen;stroke-width:2;" />
        </pattern>
    </defs>
    <rect width="720" height="66" fill="url(#greenFish)" x="-530" y="-1188" transform="rotate(-180 185 33)
                translate(0 0)
                scale(1 1)" />
    <rect width="600" height="66" fill="url(#greenFish)" x="-530" y="-1320" transform="rotate(-180 185 33)
                translate(0 0)
                scale(1 1)" />
    <rect width="470" height="66" x="237" y="990" fill="url(#tropicalFish)" />
    <rect width="640" height="66" x="150" y="1056" fill="url(#tropicalFish)" />
    <rect width="715" height="66" x="160" y="1119" fill="url(#tropicalFish)" />
    <rect width="610" height="66" x="260" y="1254" fill="url(#smallGreenFish)" />
    <rect width="715" height="66" x="185" y="1188" fill="url(#waterPattern)" opacity=".5" rx="50" />
    <rect width="600" height="66" x="300" y="1320" fill="url(#waterPattern)" opacity=".5" rx="50" />
    <rect width="430" height="66" x="257" y="990" fill="url(#waterPattern)" opacity=".5" rx="50" />
    <rect width="620" height="66" x="160" y="1056" fill="url(#waterPattern)" opacity=".5" rx="50" />
    <rect width="710" height="66" x="160" y="1119" fill="url(#waterPattern)" opacity=".5" rx="50" />
    <rect width="610" height="66" x="260" y="1254" fill="url(#waterPattern)" opacity=".5" rx="50" />

</svg>